HIERARCHY
ROOT Hips
{
  OFFSET -49.9116 92.6055 198.92
  CHANNELS 6 Xposition Yposition Zposition Zrotation Xrotation Yrotation
  JOINT Spine
  {
    OFFSET 0 8 0
    CHANNELS 6 Xposition Yposition Zposition Zrotation Xrotation Yrotation
    JOINT Spine1
    {
      OFFSET 0 8 0
      CHANNELS 6 Xposition Yposition Zposition Zrotation Xrotation Yrotation
      JOINT Spine2
      {
        OFFSET 0 8 0
        CHANNELS 6 Xposition Yposition Zposition Zrotation Xrotation Yrotation
        JOINT Spine3
        {
          OFFSET 0 8 0
          CHANNELS 6 Xposition Yposition Zposition Zrotation Xrotation Yrotation
          JOINT Neck
          {
            OFFSET 0 17 0
            CHANNELS 6 Xposition Yposition Zposition Zrotation Xrotation Yrotation
            JOINT Head
            {
              OFFSET 0 10.8 0
              CHANNELS 6 Xposition Yposition Zposition Zrotation Xrotation Yrotation
              End Site
              {
                OFFSET 0 20.25 0
              }
            }
          }
          JOINT LeftShoulder
          {
            OFFSET 5.00001 17 0
            CHANNELS 6 Xposition Yposition Zposition Zrotation Xrotation Yrotation
            JOINT LeftShoulder2
            {
              OFFSET 6.45 0 0
              CHANNELS 6 Xposition Yposition Zposition Zrotation Xrotation Yrotation
              JOINT LeftArm
              {
                OFFSET 6.45 0 1.08772e-05
                CHANNELS 6 Xposition Yposition Zposition Zrotation Xrotation Yrotation
                JOINT LeftForeArm
                {
                  OFFSET 0 -32.4 -2.00001
                  CHANNELS 6 Xposition Yposition Zposition Zrotation Xrotation Yrotation
                  JOINT LeftHand
                  {
                    OFFSET 0 -25.65 2.00001
                    CHANNELS 6 Xposition Yposition Zposition Zrotation Xrotation Yrotation
                    JOINT LeftHandThumb1
                    {
                      OFFSET -0.499981 -1.50001 2.65
                      CHANNELS 6 Xposition Yposition Zposition Zrotation Xrotation Yrotation
                      JOINT LeftHandThumb2
                      {
                        OFFSET -1.43738e-05 -3.79999 3.69999
                        CHANNELS 6 Xposition Yposition Zposition Zrotation Xrotation Yrotation
                        JOINT LeftHandThumb3
                        {
                          OFFSET 0 -3 2.7
                          CHANNELS 6 Xposition Yposition Zposition Zrotation Xrotation Yrotation
                          End Site
                          {
                            OFFSET 0 -2.3 1.80001
                          }
                        }
                      }
                    }
                    JOINT LeftHandIndex
                    {
                      OFFSET 1.70165e-05 -1.9 1.6
                      CHANNELS 6 Xposition Yposition Zposition Zrotation Xrotation Yrotation
                      JOINT LeftHandIndex1
                      {
                        OFFSET -1.83863e-05 -8.30001 1.9
                        CHANNELS 6 Xposition Yposition Zposition Zrotation Xrotation Yrotation
                        JOINT LeftHandIndex2
                        {
                          OFFSET 1.77798e-05 -4.5 0
                          CHANNELS 6 Xposition Yposition Zposition Zrotation Xrotation Yrotation
                          JOINT LeftHandIndex3
                          {
                            OFFSET 0 -3.4 0
                            CHANNELS 6 Xposition Yposition Zposition Zrotation Xrotation Yrotation
                            End Site
                            {
                              OFFSET 0 -2.6 0
                            }
                          }
                        }
                      }
                    }
                    JOINT LeftHandMiddle
                    {
                      OFFSET -0.249985 -2.20001 0.400003
                      CHANNELS 6 Xposition Yposition Zposition Zrotation Xrotation Yrotation
                      JOINT LeftHandMiddle1
                      {
                        OFFSET 0 -8.3 0.999991
                        CHANNELS 6 Xposition Yposition Zposition Zrotation Xrotation Yrotation
                        JOINT LeftHandMiddle2
                        {
                          OFFSET 0 -4.65 0
                          CHANNELS 6 Xposition Yposition Zposition Zrotation Xrotation Yrotation
                          JOINT LeftHandMiddle3
                          {
                            OFFSET 0 -3.3 0
                            CHANNELS 6 Xposition Yposition Zposition Zrotation Xrotation Yrotation
                            End Site
                            {
                              OFFSET 0 -2.69999 0
                            }
                          }
                        }
                      }
                    }
                    JOINT LeftHandRing
                    {
                      OFFSET -0.499991 -2.15001 -0.799999
                      CHANNELS 6 Xposition Yposition Zposition Zrotation Xrotation Yrotation
                      JOINT LeftHandRing1
                      {
                        OFFSET 0 -7.75 -0.200001
                        CHANNELS 6 Xposition Yposition Zposition Zrotation Xrotation Yrotation
                        JOINT LeftHandRing2
                        {
                          OFFSET 1.00558e-05 -3.79998 0
                          CHANNELS 6 Xposition Yposition Zposition Zrotation Xrotation Yrotation
                          JOINT LeftHandRing3
                          {
                            OFFSET 0 -3.40001 0
                            CHANNELS 6 Xposition Yposition Zposition Zrotation Xrotation Yrotation
                            End Site
                            {
                              OFFSET 0 -2.6 0
                            }
                          }
                        }
                      }
                    }
                    JOINT LeftHandPinky
                    {
                      OFFSET -0.74998 -1.75 -1.85
                      CHANNELS 6 Xposition Yposition Zposition Zrotation Xrotation Yrotation
                      JOINT LeftHandPinky1
                      {
                        OFFSET -1.12935e-05 -7.15 -1
                        CHANNELS 6 Xposition Yposition Zposition Zrotation Xrotation Yrotation
                        JOINT LeftHandPinky2
                        {
                          OFFSET 0 -3 0
                          CHANNELS 6 Xposition Yposition Zposition Zrotation Xrotation Yrotation
                          JOINT LeftHandPinky3
                          {
                            OFFSET 0 -2.34999 0
                            CHANNELS 6 Xposition Yposition Zposition Zrotation Xrotation Yrotation
                            End Site
                            {
                              OFFSET 0 -2.1 0
                            }
                          }
                        }
                      }
                    }
                  }
                }
              }
            }
          }
          JOINT RightShoulder
          {
            OFFSET -5.00001 17 0
            CHANNELS 6 Xposition Yposition Zposition Zrotation Xrotation Yrotation
            JOINT RightShoulder2
            {
              OFFSET -6.45 0 0
              CHANNELS 6 Xposition Yposition Zposition Zrotation Xrotation Yrotation
              JOINT RightArm
              {
                OFFSET -6.45009 0 -1.16549e-05
                CHANNELS 6 Xposition Yposition Zposition Zrotation Xrotation Yrotation
                JOINT RightForeArm
                {
                  OFFSET 0 -32.4 -2
                  CHANNELS 6 Xposition Yposition Zposition Zrotation Xrotation Yrotation
                  JOINT RightHand
                  {
                    OFFSET 0 -25.65 2
                    CHANNELS 6 Xposition Yposition Zposition Zrotation Xrotation Yrotation
                    JOINT RightHandThumb1
                    {
                      OFFSET 0.499988 -1.50001 2.65
                      CHANNELS 6 Xposition Yposition Zposition Zrotation Xrotation Yrotation
                      JOINT RightHandThumb2
                      {
                        OFFSET 0 -3.8 3.7
                        CHANNELS 6 Xposition Yposition Zposition Zrotation Xrotation Yrotation
                        JOINT RightHandThumb3
                        {
                          OFFSET 0 -3 2.7
                          CHANNELS 6 Xposition Yposition Zposition Zrotation Xrotation Yrotation
                          End Site
                          {
                            OFFSET 0 -2.3 1.8
                          }
                        }
                      }
                    }
                    JOINT RightHandIndex
                    {
                      OFFSET -1.36279e-05 -1.90001 1.59999
                      CHANNELS 6 Xposition Yposition Zposition Zrotation Xrotation Yrotation
                      JOINT RightHandIndex1
                      {
                        OFFSET 1.20809e-05 -8.3 1.90002
                        CHANNELS 6 Xposition Yposition Zposition Zrotation Xrotation Yrotation
                        JOINT RightHandIndex2
                        {
                          OFFSET -1.98921e-05 -4.5 0
                          CHANNELS 6 Xposition Yposition Zposition Zrotation Xrotation Yrotation
                          JOINT RightHandIndex3
                          {
                            OFFSET 2.20523e-05 -3.4 0
                            CHANNELS 6 Xposition Yposition Zposition Zrotation Xrotation Yrotation
                            End Site
                            {
                              OFFSET -2.08434e-05 -2.6 0
                            }
                          }
                        }
                      }
                    }
                    JOINT RightHandMiddle
                    {
                      OFFSET 0.249994 -2.2 0.399998
                      CHANNELS 6 Xposition Yposition Zposition Zrotation Xrotation Yrotation
                      JOINT RightHandMiddle1
                      {
                        OFFSET 0 -8.30001 1.00001
                        CHANNELS 6 Xposition Yposition Zposition Zrotation Xrotation Yrotation
                        JOINT RightHandMiddle2
                        {
                          OFFSET 0 -4.64999 0
                          CHANNELS 6 Xposition Yposition Zposition Zrotation Xrotation Yrotation
                          JOINT RightHandMiddle3
                          {
                            OFFSET 0 -3.30001 0
                            CHANNELS 6 Xposition Yposition Zposition Zrotation Xrotation Yrotation
                            End Site
                            {
                              OFFSET -1.1601e-05 -2.7 0
                            }
                          }
                        }
                      }
                    }
                    JOINT RightHandRing
                    {
                      OFFSET 0.499991 -2.15001 -0.800003
                      CHANNELS 6 Xposition Yposition Zposition Zrotation Xrotation Yrotation
                      JOINT RightHandRing1
                      {
                        OFFSET 0 -7.75 -0.199996
                        CHANNELS 6 Xposition Yposition Zposition Zrotation Xrotation Yrotation
                        JOINT RightHandRing2
                        {
                          OFFSET 0 -3.8 0
                          CHANNELS 6 Xposition Yposition Zposition Zrotation Xrotation Yrotation
                          JOINT RightHandRing3
                          {
                            OFFSET 0 -3.4 0
                            CHANNELS 6 Xposition Yposition Zposition Zrotation Xrotation Yrotation
                            End Site
                            {
                              OFFSET 0 -2.6 0
                            }
                          }
                        }
                      }
                    }
                    JOINT RightHandPinky
                    {
                      OFFSET 0.749987 -1.75001 -1.85001
                      CHANNELS 6 Xposition Yposition Zposition Zrotation Xrotation Yrotation
                      JOINT RightHandPinky1
                      {
                        OFFSET 1.15617e-05 -7.15 -0.999995
                        CHANNELS 6 Xposition Yposition Zposition Zrotation Xrotation Yrotation
                        JOINT RightHandPinky2
                        {
                          OFFSET 0 -3 0
                          CHANNELS 6 Xposition Yposition Zposition Zrotation Xrotation Yrotation
                          JOINT RightHandPinky3
                          {
                            OFFSET 1.13701e-05 -2.35 0
                            CHANNELS 6 Xposition Yposition Zposition Zrotation Xrotation Yrotation
                            End Site
                            {
                              OFFSET -1.43155e-05 -2.1 0
                            }
                          }
                        }
                      }
                    }
                  }
                }
              }
            }
          }
        }
      }
    }
  }
  JOINT LeftUpLeg
  {
    OFFSET 8 0 0
    CHANNELS 6 Xposition Yposition Zposition Zrotation Xrotation Yrotation
    JOINT LeftLeg
    {
      OFFSET 0 -45 -0.999998
      CHANNELS 6 Xposition Yposition Zposition Zrotation Xrotation Yrotation
      JOINT LeftFoot
      {
        OFFSET 0 -41 -2
        CHANNELS 6 Xposition Yposition Zposition Zrotation Xrotation Yrotation
        JOINT LeftToeBase
        {
          OFFSET 0 -7.5 12.5
          CHANNELS 6 Xposition Yposition Zposition Zrotation Xrotation Yrotation
          JOINT LeftFootToe
          {
            OFFSET 0 0 4
            CHANNELS 6 Xposition Yposition Zposition Zrotation Xrotation Yrotation
            End Site
            {
              OFFSET 0 0 0
            }
          }
        }
      }
    }
  }
  JOINT RightUpLeg
  {
    OFFSET -8 0 0
    CHANNELS 6 Xposition Yposition Zposition Zrotation Xrotation Yrotation
    JOINT RightLeg
    {
      OFFSET 0 -45 -1
      CHANNELS 6 Xposition Yposition Zposition Zrotation Xrotation Yrotation
      JOINT RightFoot
      {
        OFFSET 0 -41 -2
        CHANNELS 6 Xposition Yposition Zposition Zrotation Xrotation Yrotation
        JOINT RightToeBase
        {
          OFFSET 0 -7.5 12.5
          CHANNELS 6 Xposition Yposition Zposition Zrotation Xrotation Yrotation
          JOINT RightFootToe
          {
            OFFSET 0 0 4
            CHANNELS 6 Xposition Yposition Zposition Zrotation Xrotation Yrotation
            End Site
            {
              OFFSET 0 0 0
            }
          }
        }
      }
    }
  }
}
MOTION
Frames:	4
Frame Time:	0.0111111
0 93.5 0 0 0 -0 0 8 0 0 0 -0 0 8 0 0 0 -0 0 8 0 0 0 -0 0 8 0 0 0 -0 0 17 0 0 0 -0 0 10.8 0 0 0 -0 5 17 0 0 0 -0 6.45 0 0 0 0 -0 6.45 0 0 90.0002 0 -0 0 -32.4 -2 0 0 -0 0 -25.65 2 0 0 -0 -0.5 -1.5 2.65 0 0 -0 0 -3.8 3.7 -0.0101655 0 -0 0 -3 2.7 -0.00689268 9.40694e-19 -0.00283773 -2.84217e-14 -1.9 1.6 0 0 -0 2.84217e-14 -8.3 1.9 0 0 -0 0 -4.5 0 -4.32343e-07 -0.00354968 -0.0069785 0 -3.4 0 -5.34552e-07 -0.00634988 -0.00482333 -0.25 -2.2 0.4 0 0 -0 2.84217e-14 -8.3 1 0 0 -0 0 -4.65 0 0 0 -0.00368092 0 -3.3 0 -2.42657e-20 -2.96212e-24 -0.00261967 -0.5 -2.15 -0.8 0 0 -0 0 -7.75 -0.2 0 0 -0 2.84217e-14 -3.8 0 4.03604e-07 -0.0031139 0.00742632 2.84217e-14 -3.4 1.11022e-16 4.37062e-07 -0.0039358 0.00636257 -0.75 -1.75 -1.85 0 0 -0 0 -7.15 -1 0 0 -0 0 -3 0 0 0 -0 0 -2.35 0 0 0 -0 -5 17 0 0 0 -0 -6.45 0 0 0 0 -0 -6.45 0 0 -90.0002 0 -0 0 -32.4 -2 0 0 -0 0 -25.65 2 0 0 -0 0.5 -1.5 2.65 0 0 -0 0 -3.8 3.7 0 0 -0 0 -3 2.7 0 0 -0 2.84217e-14 -1.9 1.6 0 0 -0 -2.84217e-14 -8.3 1.9 0 0 -0.00754761 -2.84217e-14 -4.5 0 -4.87294e-20 0.00365179 3.10601e-18 0 -3.4 0 9.19545e-21 0.00351586 -3.10601e-18 0.25 -2.2 0.4 0 0 -0 -2.84217e-14 -8.3 1 2.42657e-20 0 -0.010499 0 -4.65 0 1.07438e-07 0.00240863 -0.00255569 2.84217e-14 -3.3 0 -1.21407e-07 0.00295151 0.00235679 0.5 -2.15 -0.8 0 0 -0 0 -7.75 -0.2 0 0 -0.0105581 0 -3.8 0 3.37186e-09 0.0016101 -0.000119989 0 -3.4 0 2.86654e-07 -0.00205039 0.00801023 0.75 -1.75 -1.85 0 0 -0 0 -7.15 -1 0 0 -0.00231241 0 -3 0 -2.42657e-20 2.96212e-24 0.00228622 0 -2.35 0 -2.00376e-09 0.000906151 0.000126698 8 0 0 0 0 -0 0 -45 -1 0 0 -0 0 -41 -2 0 0 -0 0 -7.5 12.5 0 0 -0 0 0 4 0 0 -0 -8 0 0 0 0 -0 0 -45 -1 0 0 -0 0 -41 -2 0 0 -0 0 -7.5 12.5 0 0 -0 0 0 4 0 0 -0 
-51.4904 91.7287 196.46 -7.64573 4.66243 39.7173 0 8 -1.42109e-14 2.50864 -2.12522 -111.946 2.84217e-14 8 0 -6.18327 -4.48962 99.1263 0 8 -1.42109e-14 0.0949826 0.22743 22.7633 0 8 1.42109e-14 -0.0408348 0.108859 7.06374 0 17 0 2.14685 7.09319 -1.73498 0 10.8 0 5.46404 16.4844 -4.56465 5 17 -1.42109e-14 -1.18157 0.871528 0.554831 6.45 2.84217e-14 1.42109e-14 3.43849 6.77514 -2.66188 6.45 0 -1.42109e-14 0.560133 -19.1848 6.45107 0 -32.4 -2 -12.0992 -30.4545 -0.202966 0 -25.65 2 13.6942 -8.95546 -12.5706 -0.5 -1.5 2.65 -2.36989 -16.356 -0.534075 0 -3.8 3.7 -0.014493 24.6498 0.010376 0 -3 2.7 -0.00569561 22.872 -0.00307989 -2.84217e-14 -1.9 1.6 -3.18055e-15 -4.77083e-15 -0 2.84217e-14 -8.3 1.9 -14.0209 -1.51875 -0.115 0 -4.5 -2.84217e-14 -1.16385 -0.00354968 -0.0069785 0 -3.4 0 -1.14534 -0.00634988 -0.00482333 -0.25 -2.2 0.4 -3.18055e-15 -4.77083e-15 -0 -2.84217e-14 -8.3 1 -19.9137 -1.23502 0.223102 0 -4.65 0 -3.88842 3.18055e-15 -0.00368092 0 -3.3 0 -3.69075 -3.18055e-15 -0.00261967 -0.5 -2.15 -0.8 -3.18055e-15 -4.77083e-15 -0 -2.84217e-14 -7.75 -0.2 -30.3579 -0.901773 0.869101 0 -3.8 0 -13.3541 -0.0031139 0.00742632 0 -3.4 0 -11.3241 -0.0039358 0.00636257 -0.75 -1.75 -1.85 -3.18055e-15 -4.77083e-15 -0 0 -7.15 -1 -39.6072 -1.33082 1.17466 -2.84217e-14 -3 0 -3.18055e-15 0 3.18055e-15 0 -2.35 0 -3.18055e-15 0 3.18055e-15 -5 17 0 0.950109 -0.0506535 -3.77773 -6.45 -2.84217e-14 0 1.27544 7.78483 -0.194773 -6.45 0 1.42109e-14 -12.9748 -26.3182 -2.93576 0 -32.4 -2 14.2254 -22.4284 4.97065 2.84217e-14 -25.65 2 -2.48894 3.35635 18.2511 0.5 -1.5 2.65 -0.733157 -19.3758 -1.39278 -2.84217e-14 -3.8 3.7 0.167232 31.7085 -0.0303742 0 -3 2.7 0.0243898 19.3312 -0.0359768 2.84217e-14 -1.9 1.6 3.18055e-15 -7.95139e-16 3.18055e-15 0 -8.3 1.9 0.598793 0.823377 -0.00754839 0 -4.5 0 1.09582 0.00365179 -0 0 -3.4 0 1.07715 0.00351586 -1.59028e-15 0.25 -2.2 0.4 3.18055e-15 -7.95139e-16 3.18055e-15 2.84217e-14 -8.3 1 0.760496 0.708565 -0.0104998 0 -4.65 0 6.5705 0.00240863 -0.00255569 5.68434e-14 -3.3 -7.10543e-15 6.02164 0.00295151 0.00235679 0.5 -2.15 -0.8 3.18055e-15 -7.95139e-16 3.18055e-15 0 -7.75 -0.2 0.962691 0.348147 -0.0105583 0 -3.8 0 11.04 0.0016101 -0.000119989 0 -3.4 0 9.60158 -0.00205039 0.00801023 0.75 -1.75 -1.85 3.18055e-15 -7.95139e-16 3.18055e-15 -2.84217e-14 -7.15 -1 1.00591 0.173504 -0.00231242 0 -3 -7.10543e-15 7.52148 0.010856 0.00228622 -2.84217e-14 -2.35 0 6.81379 0.000906151 0.000126698 8 0 0 16.7934 -16.4186 21.0874 2.84217e-14 -45 -1 -0.103814 19.5732 0.608481 -2.84217e-14 -41 -2 -9.66906 -6.29242 -18.0256 0 -7.5 12.5 -9.93923e-17 -9.93923e-17 6.36111e-15 0 -4.44089e-16 4 2.50002 1.26302 0.0412605 -8 1.42109e-14 -2.84217e-14 -4.06436 -18.3981 3.30633 0 -45 -1 -0.020191 12.7649 0.551846 0 -41 -2 7.43691 -3.5388 -0.990193 0 -7.5 12.5 4.13804e-33 2.48481e-17 -9.54166e-15 0 1.11022e-16 4 -4.62101 -1.93839 0.00700898 
-51.8839 91.6275 196.095 -7.93705 4.96969 39.772 0 8 -1.42109e-14 2.44388 -1.77176 -111.992 0 8 0 -6.75504 -4.88683 99.022 0 8 -2.84217e-14 0.102066 0.281924 22.9087 0 8 0 -0.048046 0.142179 7.08028 -2.84217e-14 17 0 2.14564 6.93754 -1.76886 -2.84217e-14 10.8 -1.42109e-14 5.45421 16.1169 -4.63027 5 17 0 -1.16669 0.819438 0.7806 6.45 0 0 3.61072 6.81013 -2.72541 6.45 0 0 0.171869 -20.8627 5.79691 2.84217e-14 -32.4 -2 -12.1021 -30.5096 -0.102589 0 -25.65 2 14.272 -9.10864 -12.9537 -0.5 -1.5 2.65 -2.36336 -16.3828 -0.515495 0 -3.8 3.7 -0.0145028 24.8174 0.0103336 0 -3 2.7 -0.00569297 22.9171 -0.00308091 -2.84217e-14 -1.9 1.6 -3.18055e-15 -7.95139e-16 -6.36111e-15 0 -8.3 1.9 -14.4647 -1.5738 -0.12058 0 -4.5 0 -1.15166 -0.00354968 -0.0069785 0 -3.4 0 -1.13352 -0.00634988 -0.00482333 -0.25 -2.2 0.4 -3.18055e-15 -7.95139e-16 -6.36111e-15 -2.84217e-14 -8.3 1 -20.2392 -1.25048 0.22552 0 -4.65 0 -3.85175 3.18055e-15 -0.00368092 0 -3.3 0 -3.65757 6.36111e-15 -0.00261967 -0.5 -2.15 -0.8 -3.18055e-15 -7.95139e-16 -6.36111e-15 0 -7.75 -0.2 -30.5039 -0.860892 0.890507 0 -3.8 0 -13.2099 -0.0031139 0.00742632 0 -3.4 2.84217e-14 -11.2193 -0.0039358 0.00636257 -0.75 -1.75 -1.85 -3.18055e-15 -7.95139e-16 -6.36111e-15 -2.84217e-14 -7.15 -1 -39.7541 -1.27252 1.21325 0 -3 0 -3.18055e-15 0 3.18055e-15 -2.84217e-14 -2.35 0 -6.36111e-15 0 3.18055e-15 -5 17 1.42109e-14 0.955532 -0.0852723 -4.06777 -6.45 0 1.42109e-14 1.31565 7.86519 -0.135688 -6.45 2.84217e-14 0 -13.2736 -27.9127 -2.47763 2.84217e-14 -32.4 -2 13.9728 -22.5102 4.8362 -2.84217e-14 -25.65 2 -3.01844 2.74043 18.4766 0.5 -1.5 2.65 -0.673302 -19.1916 -1.27957 0 -3.8 3.7 0.17191 31.3865 -0.0325144 0 -3 2.7 0.0239455 19.4423 -0.0384595 0 -1.9 1.6 0 2.38542e-15 -0 5.68434e-14 -8.3 1.9 0.778108 0.941644 -0.00754863 -2.84217e-14 -4.5 -7.10543e-15 1.2421 0.00365179 -0 2.84217e-14 -3.4 0 1.21949 0.00351586 -1.59028e-15 0.25 -2.2 0.4 0 2.38542e-15 -0 0 -8.3 1 0.933514 0.791425 -0.0105 0 -4.65 0 6.83774 0.00240863 -0.00255569 0 -3.3 0 6.24744 0.00295151 0.00235679 0.5 -2.15 -0.8 0 2.38542e-15 -0 0 -7.75 -0.2 1.10999 0.352354 -0.0105583 0 -3.8 0 11.2615 0.0016101 -0.000119989 2.84217e-14 -3.4 0 9.77031 -0.00205039 0.00801023 0.75 -1.75 -1.85 0 2.38542e-15 -0 0 -7.15 -1 1.13409 0.137163 -0.00231242 0 -3 0 7.81772 0.0109342 0.00228622 0 -2.35 0 7.05793 0.000906151 0.000126698 8 2.84217e-14 1.42109e-14 17.1887 -17.5181 21.8349 -2.84217e-14 -45 -1 -0.104653 20.4092 0.6024 0 -41 -2 -9.44073 -6.12287 -18.5318 0 -7.5 12.5 9.93923e-17 -2.98177e-16 -3.18055e-15 0 4.44089e-16 4 2.3588 1.09799 0.047323 -8 2.84217e-14 0 -4.04662 -19.5942 2.93381 0 -45 -1 -0.0206982 13.6778 0.547656 -2.84217e-14 -41 -2 7.196 -3.86539 -0.655609 2.84217e-14 -7.5 12.5 -9.93923e-17 -4.96962e-17 6.36111e-15 -2.84217e-14 0 4 -4.41371 -1.65105 0.0231945 
-52.2775 91.521 195.73 -8.25085 5.3185 39.8051 0 8 0 2.35269 -1.3359 -112.028 -2.84217e-14 8 -1.42109e-14 -7.36602 -5.30935 98.8925 0 8 1.42109e-14 0.109056 0.324402 23.0688 0 8 1.42109e-14 -0.0532436 0.175987 7.0949 0 17 2.84217e-14 2.13648 6.72741 -1.79459 0 10.8 -1.42109e-14 5.41918 15.6226 -4.67014 5 17 0 -1.16622 0.702597 1.01022 6.45 -2.84217e-14 0 3.78011 6.7821 -2.76789 6.45 0 0 -0.248284 -22.5727 5.06544 2.84217e-14 -32.4 -2 -12.0606 -30.5183 0.0261024 0 -25.65 2 14.8257 -9.27024 -13.3756 -0.5 -1.5 2.65 -2.33818 -16.4189 -0.502014 -2.84217e-14 -3.8 3.7 -0.0145439 24.9968 0.0103613 0 -3 2.7 -0.00569089 22.9528 -0.00308172 0 -1.9 1.6 6.62086e-31 -3.97569e-15 9.54166e-15 0 -8.3 1.9 -14.9471 -1.55698 -0.118468 0 -4.5 0 -1.10295 -0.00354968 -0.0069785 0 -3.4 0 -1.08629 -0.00634988 -0.00482333 -0.25 -2.2 0.4 6.62086e-31 -3.97569e-15 9.54166e-15 2.84217e-14 -8.3 1 -20.604 -1.24251 0.23091 0 -4.65 0 -3.85775 -3.18055e-15 -0.00368092 2.84217e-14 -3.3 0 -3.66297 6.36111e-15 -0.00261967 -0.5 -2.15 -0.8 6.62086e-31 -3.97569e-15 9.54166e-15 -2.84217e-14 -7.75 -0.2 -30.682 -0.851588 0.901405 0 -3.8 0 -13.0894 -0.0031139 0.00742632 0 -3.4 0 -11.1317 -0.0039358 0.00636257 -0.75 -1.75 -1.85 6.62086e-31 -3.97569e-15 9.54166e-15 2.84217e-14 -7.15 -1 -39.9461 -1.26899 1.22996 0 -3 0 6.36111e-15 -3.18055e-15 -0 0 -2.35 0 -3.53113e-31 6.36111e-15 3.18055e-15 -5 17 0 0.935323 -0.205695 -4.33741 -6.45 -5.68434e-14 0 1.36005 7.84022 -0.0834842 -6.45 0 1.42109e-14 -13.5621 -29.4671 -1.98898 -2.84217e-14 -32.4 -2 13.7091 -22.58 4.70488 -2.84217e-14 -25.65 2 -3.51793 2.15385 18.7741 0.5 -1.5 2.65 -0.647542 -19.0156 -1.22434 0 -3.8 3.7 0.170182 31.109 -0.0324965 2.84217e-14 -3 2.7 0.0238365 19.5568 -0.0380142 0 -1.9 1.6 1.59028e-15 7.95139e-16 -3.18055e-15 2.84217e-14 -8.3 1.9 0.970898 1.05446 -0.0103246 0 -4.5 7.10543e-15 1.37376 0.00365179 3.18055e-15 0 -3.4 0 1.34697 0.00351586 1.59028e-15 0.25 -2.2 0.4 1.59028e-15 7.95139e-16 -3.18055e-15 0 -8.3 1 1.11167 0.867919 -0.0105002 2.84217e-14 -4.65 7.10543e-15 7.08386 0.00240863 -0.00255569 0 -3.3 1.42109e-14 6.45451 0.00295151 0.00235679 0.5 -2.15 -0.8 1.59028e-15 7.95139e-16 -3.18055e-15 2.84217e-14 -7.75 -0.2 1.24684 0.349448 -0.0105583 0 -3.8 0 11.4688 0.0016101 -0.000119989 -2.84217e-14 -3.4 3.55271e-15 9.92758 -0.00205039 0.00801023 0.75 -1.75 -1.85 1.59028e-15 7.95139e-16 -3.18055e-15 2.84217e-14 -7.15 -1 1.24408 0.0934925 -0.00231242 0 -3 -3.55271e-15 8.09757 0.0104584 0.00228622 0 -2.35 -3.55271e-15 7.28733 0.000906151 0.000126698 8 0 0 17.5868 -18.6326 22.5964 0 -45 -1 -0.104334 21.2063 0.597813 0 -41 -2 -9.33931 -6.07003 -19.0144 -2.84217e-14 -7.5 12.5 -9.93923e-17 -9.93923e-17 9.54166e-15 0 -4.44089e-16 4 2.31271 1.08625 0.0471077 -8 0 0 -4.04928 -20.8463 2.49361 0 -45 -1 -0.0221159 14.5612 0.547407 2.84217e-14 -41 -2 7.14673 -3.96734 -0.234826 -2.84217e-14 -7.5 12.5 -4.96962e-17 9.93923e-17 -0 2.84217e-14 4.44089e-16 4 -4.41139 -1.56404 0.0249112 
